<svg xmlns="http://www.w3.org/2000/svg" width="30" height="10" viewBox="0 0 30 10" fill="none">
  <path d="M16.6812 1.84371L14.8644 5.75824H14.6805V1.00024H12.0851V9.00233H14.2372C14.8211 9.00233 15.3402 8.6671 15.5889 8.14805L17.4166 4.24433H17.6004V9.00233H20.1958V1.00024H18.0113C17.449 1.00024 16.9191 1.33547 16.6812 1.84371Z" fill="#319B42"/>
  <path d="M6.97242 2.04917L5.90181 5.75824H5.71797L4.63654 2.04917C4.4527 1.42198 3.87954 1.00024 3.23069 1.00024H0.667709V9.00233H3.26313V4.24433H3.44697L4.93934 9.00233H6.66962L8.16199 4.24433H8.34583V9.00233H10.9412V1.00024H8.37827C7.72942 1.00024 7.14545 1.42198 6.97242 2.04917Z" fill="#319B42"/>
  <path d="M21.3243 4.56733V9.00233H23.9206V6.40623H26.7116C27.9231 6.40623 28.9508 5.63822 29.3294 4.56733H21.3243Z" fill="#319B42"/>
  <path d="M26.6357 1.00024H20.859C21.216 2.90405 22.8819 4.24537 24.8832 4.24537H29.3726C29.405 4.07229 29.4267 3.87758 29.4267 3.68288C29.4267 2.13604 28.1826 1.00024 26.6357 1.00024Z" fill="url(#paint0_linear_7_950)"/>
  <defs>
    <linearGradient id="paint0_linear_7_950" x1="20.859" y1="2.6228" x2="29.4267" y2="2.6228" gradientUnits="userSpaceOnUse">
      <stop stop-color="#00A3E1"/>
      <stop offset="0.3042" stop-color="#009ADD"/>
      <stop offset="0.7987" stop-color="#0082D4"/>
      <stop offset="1" stop-color="#0076CF"/>
    </linearGradient>
  </defs>
</svg>